<mxfile host="Electron" agent="Mozilla/5.0 (Macintosh; Intel Mac OS X 10_15_7) AppleWebKit/537.36 (KHTML, like Gecko) draw.io/26.0.7 Chrome/128.0.6613.186 Electron/32.2.5 Safari/537.36" version="26.0.7">
  <diagram name="Page-1" id="bSBdsWvkeY_gy2xNNvll">
    <mxGraphModel dx="571" dy="99" grid="0" gridSize="10" guides="1" tooltips="1" connect="1" arrows="1" fold="1" page="1" pageScale="1" pageWidth="583" pageHeight="413" math="0" shadow="0">
      <root>
        <mxCell id="0" />
        <mxCell id="1" parent="0" />
        <mxCell id="BTwpPPy1M8Ra8dirvppY-2" value="" style="group" vertex="1" connectable="0" parent="1">
          <mxGeometry x="92" y="520" width="400" height="200" as="geometry" />
        </mxCell>
        <mxCell id="Hf-QtDge7o9ZyB0lpC6g-1" value="" style="rounded=0;whiteSpace=wrap;html=1;dashed=1;fillColor=none;strokeColor=#C2C2C2;" parent="BTwpPPy1M8Ra8dirvppY-2" vertex="1">
          <mxGeometry y="10" width="60" height="190" as="geometry" />
        </mxCell>
        <mxCell id="Hf-QtDge7o9ZyB0lpC6g-2" value="Sources" style="rounded=0;whiteSpace=wrap;html=1;strokeColor=none;fontSize=10;" parent="BTwpPPy1M8Ra8dirvppY-2" vertex="1">
          <mxGeometry x="5" width="50" height="13" as="geometry" />
        </mxCell>
        <mxCell id="Hf-QtDge7o9ZyB0lpC6g-3" value="" style="rounded=0;whiteSpace=wrap;html=1;dashed=1;fillColor=none;strokeColor=#C2C2C2;" parent="BTwpPPy1M8Ra8dirvppY-2" vertex="1">
          <mxGeometry x="80" y="10" width="240" height="190" as="geometry" />
        </mxCell>
        <mxCell id="Hf-QtDge7o9ZyB0lpC6g-4" value="Data Warehouse" style="rounded=0;whiteSpace=wrap;html=1;strokeColor=none;fontSize=10;" parent="BTwpPPy1M8Ra8dirvppY-2" vertex="1">
          <mxGeometry x="170" width="80" height="13" as="geometry" />
        </mxCell>
        <mxCell id="Hf-QtDge7o9ZyB0lpC6g-5" value="" style="rounded=0;whiteSpace=wrap;html=1;dashed=1;fillColor=none;strokeColor=#C2C2C2;" parent="BTwpPPy1M8Ra8dirvppY-2" vertex="1">
          <mxGeometry x="340" y="10" width="60" height="190" as="geometry" />
        </mxCell>
        <mxCell id="Hf-QtDge7o9ZyB0lpC6g-6" value="Consume" style="rounded=0;whiteSpace=wrap;html=1;strokeColor=none;fontSize=10;" parent="BTwpPPy1M8Ra8dirvppY-2" vertex="1">
          <mxGeometry x="345" width="50" height="13" as="geometry" />
        </mxCell>
        <mxCell id="Hf-QtDge7o9ZyB0lpC6g-7" value="Bronze Layer" style="rounded=0;whiteSpace=wrap;html=1;fontSize=7;fillColor=#ffe6cc;strokeColor=#d79b00;fontStyle=1" parent="BTwpPPy1M8Ra8dirvppY-2" vertex="1">
          <mxGeometry x="90" y="20" width="60" height="10" as="geometry" />
        </mxCell>
        <mxCell id="Hf-QtDge7o9ZyB0lpC6g-8" value="" style="rounded=0;whiteSpace=wrap;html=1;fontSize=8;fillColor=none;strokeColor=#d79b00;" parent="BTwpPPy1M8Ra8dirvppY-2" vertex="1">
          <mxGeometry x="90" y="32" width="60" height="158" as="geometry" />
        </mxCell>
        <mxCell id="Hf-QtDge7o9ZyB0lpC6g-9" value="Silver Layer" style="rounded=0;whiteSpace=wrap;html=1;fontSize=7;fillColor=#f5f5f5;strokeColor=#666666;fontColor=#333333;fontStyle=1" parent="BTwpPPy1M8Ra8dirvppY-2" vertex="1">
          <mxGeometry x="170" y="20" width="60" height="10" as="geometry" />
        </mxCell>
        <mxCell id="Hf-QtDge7o9ZyB0lpC6g-10" value="" style="rounded=0;whiteSpace=wrap;html=1;fontSize=8;fillColor=none;strokeColor=#666666;fontColor=#333333;" parent="BTwpPPy1M8Ra8dirvppY-2" vertex="1">
          <mxGeometry x="170" y="32" width="60" height="158" as="geometry" />
        </mxCell>
        <mxCell id="Hf-QtDge7o9ZyB0lpC6g-11" value="Gold Layer" style="rounded=0;whiteSpace=wrap;html=1;fontSize=7;fillColor=#fff2cc;strokeColor=#d6b656;fontStyle=1" parent="BTwpPPy1M8Ra8dirvppY-2" vertex="1">
          <mxGeometry x="250" y="20" width="60" height="10" as="geometry" />
        </mxCell>
        <mxCell id="Hf-QtDge7o9ZyB0lpC6g-12" value="" style="rounded=0;whiteSpace=wrap;html=1;fontSize=8;fillColor=none;strokeColor=#d6b656;" parent="BTwpPPy1M8Ra8dirvppY-2" vertex="1">
          <mxGeometry x="250" y="32" width="60" height="158" as="geometry" />
        </mxCell>
        <mxCell id="Hf-QtDge7o9ZyB0lpC6g-13" value="" style="image;aspect=fixed;html=1;points=[];align=center;fontSize=12;image=img/lib/azure2/general/Folder_Blank.svg;" parent="BTwpPPy1M8Ra8dirvppY-2" vertex="1">
          <mxGeometry x="18.069999999999993" y="41" width="21.09" height="17.12" as="geometry" />
        </mxCell>
        <mxCell id="Hf-QtDge7o9ZyB0lpC6g-14" value="" style="image;aspect=fixed;html=1;points=[];align=center;fontSize=12;image=img/lib/azure2/general/File.svg;" parent="BTwpPPy1M8Ra8dirvppY-2" vertex="1">
          <mxGeometry x="34.06999999999999" y="51.120000000000005" width="12.22" height="15.07" as="geometry" />
        </mxCell>
        <mxCell id="Hf-QtDge7o9ZyB0lpC6g-15" value="" style="image;aspect=fixed;html=1;points=[];align=center;fontSize=12;image=img/lib/azure2/general/Folder_Blank.svg;" parent="BTwpPPy1M8Ra8dirvppY-2" vertex="1">
          <mxGeometry x="18.069999999999993" y="80" width="21.09" height="17.12" as="geometry" />
        </mxCell>
        <mxCell id="Hf-QtDge7o9ZyB0lpC6g-16" value="" style="image;aspect=fixed;html=1;points=[];align=center;fontSize=12;image=img/lib/azure2/general/File.svg;" parent="BTwpPPy1M8Ra8dirvppY-2" vertex="1">
          <mxGeometry x="34.06999999999999" y="90.12" width="12.22" height="15.07" as="geometry" />
        </mxCell>
        <mxCell id="Hf-QtDge7o9ZyB0lpC6g-17" value="CRM" style="text;html=1;align=center;verticalAlign=middle;whiteSpace=wrap;rounded=0;fontSize=5;" parent="BTwpPPy1M8Ra8dirvppY-2" vertex="1">
          <mxGeometry x="13.70999999999998" y="54" width="25.45" height="15" as="geometry" />
        </mxCell>
        <mxCell id="Hf-QtDge7o9ZyB0lpC6g-18" value="ERP" style="text;html=1;align=center;verticalAlign=middle;whiteSpace=wrap;rounded=0;fontSize=5;" parent="BTwpPPy1M8Ra8dirvppY-2" vertex="1">
          <mxGeometry x="13.70999999999998" y="93" width="25.45" height="15" as="geometry" />
        </mxCell>
        <mxCell id="Hf-QtDge7o9ZyB0lpC6g-19" value="" style="endArrow=none;html=1;rounded=0;strokeWidth=0.3;" parent="BTwpPPy1M8Ra8dirvppY-2" edge="1">
          <mxGeometry width="50" height="50" relative="1" as="geometry">
            <mxPoint x="7.5" y="126.19000000000005" as="sourcePoint" />
            <mxPoint x="52.5" y="126" as="targetPoint" />
          </mxGeometry>
        </mxCell>
        <mxCell id="Hf-QtDge7o9ZyB0lpC6g-21" value="&lt;b&gt;Object Type:&lt;/b&gt; CSV Files&lt;div&gt;&lt;br&gt;&lt;/div&gt;&lt;div&gt;&lt;b&gt;Interface:&lt;/b&gt; Files in Folder&lt;/div&gt;" style="text;html=1;align=left;verticalAlign=middle;whiteSpace=wrap;rounded=0;fontSize=4;fontColor=#4D4D4D;" parent="BTwpPPy1M8Ra8dirvppY-2" vertex="1">
          <mxGeometry x="9" y="135" width="51" height="18" as="geometry" />
        </mxCell>
        <mxCell id="Hf-QtDge7o9ZyB0lpC6g-22" value="" style="html=1;verticalLabelPosition=bottom;align=center;labelBackgroundColor=#ffffff;verticalAlign=top;strokeWidth=1;strokeColor=#d79b00;shadow=0;dashed=0;shape=mxgraph.ios7.icons.data;fillColor=#ffe6cc;" parent="BTwpPPy1M8Ra8dirvppY-2" vertex="1">
          <mxGeometry x="110.43" y="60" width="19.15" height="23.22" as="geometry" />
        </mxCell>
        <mxCell id="Hf-QtDge7o9ZyB0lpC6g-23" value="" style="html=1;verticalLabelPosition=bottom;align=center;labelBackgroundColor=#ffffff;verticalAlign=top;strokeWidth=1;strokeColor=#666666;shadow=0;dashed=0;shape=mxgraph.ios7.icons.data;fillColor=#f5f5f5;fontColor=#333333;" parent="BTwpPPy1M8Ra8dirvppY-2" vertex="1">
          <mxGeometry x="190.43" y="60" width="19.15" height="23.22" as="geometry" />
        </mxCell>
        <mxCell id="Hf-QtDge7o9ZyB0lpC6g-24" value="" style="html=1;verticalLabelPosition=bottom;align=center;labelBackgroundColor=#ffffff;verticalAlign=top;strokeWidth=1;strokeColor=#d6b656;shadow=0;dashed=0;shape=mxgraph.ios7.icons.data;fillColor=#fff2cc;" parent="BTwpPPy1M8Ra8dirvppY-2" vertex="1">
          <mxGeometry x="270.42" y="60" width="19.15" height="23.22" as="geometry" />
        </mxCell>
        <mxCell id="Hf-QtDge7o9ZyB0lpC6g-25" value="" style="shape=singleArrow;whiteSpace=wrap;html=1;fillColor=#dae8fc;strokeColor=#6c8ebf;strokeWidth=0.5;" parent="BTwpPPy1M8Ra8dirvppY-2" vertex="1">
          <mxGeometry x="56" y="60.610000000000014" width="40.71" height="22" as="geometry" />
        </mxCell>
        <mxCell id="Hf-QtDge7o9ZyB0lpC6g-27" value="" style="shape=singleArrow;whiteSpace=wrap;html=1;fillColor=#dae8fc;strokeColor=#6c8ebf;strokeWidth=0.5;" parent="BTwpPPy1M8Ra8dirvppY-2" vertex="1">
          <mxGeometry x="140" y="61.22000000000003" width="40.71" height="22" as="geometry" />
        </mxCell>
        <mxCell id="Hf-QtDge7o9ZyB0lpC6g-28" value="" style="shape=singleArrow;whiteSpace=wrap;html=1;fillColor=#dae8fc;strokeColor=#6c8ebf;strokeWidth=0.5;" parent="BTwpPPy1M8Ra8dirvppY-2" vertex="1">
          <mxGeometry x="220" y="60.610000000000014" width="40.71" height="22" as="geometry" />
        </mxCell>
        <mxCell id="Hf-QtDge7o9ZyB0lpC6g-29" value="" style="shape=singleArrow;whiteSpace=wrap;html=1;fillColor=#dae8fc;strokeColor=#6c8ebf;strokeWidth=0.5;" parent="BTwpPPy1M8Ra8dirvppY-2" vertex="1">
          <mxGeometry x="304.29" y="61.22000000000003" width="40.71" height="22" as="geometry" />
        </mxCell>
        <mxCell id="Hf-QtDge7o9ZyB0lpC6g-31" value="Raw Data" style="text;html=1;align=center;verticalAlign=middle;whiteSpace=wrap;rounded=0;fontSize=5;" parent="BTwpPPy1M8Ra8dirvppY-2" vertex="1">
          <mxGeometry x="107.27999999999997" y="79.61000000000001" width="25.45" height="15" as="geometry" />
        </mxCell>
        <mxCell id="Hf-QtDge7o9ZyB0lpC6g-32" value="Cleaned, Standardized Data" style="text;html=1;align=center;verticalAlign=middle;whiteSpace=wrap;rounded=0;fontSize=5;" parent="BTwpPPy1M8Ra8dirvppY-2" vertex="1">
          <mxGeometry x="175.14999999999998" y="82.11000000000001" width="49.72" height="15" as="geometry" />
        </mxCell>
        <mxCell id="Hf-QtDge7o9ZyB0lpC6g-33" value="Business-Ready Data" style="text;html=1;align=center;verticalAlign=middle;whiteSpace=wrap;rounded=0;fontSize=5;" parent="BTwpPPy1M8Ra8dirvppY-2" vertex="1">
          <mxGeometry x="255.14" y="82.67000000000007" width="49.72" height="15" as="geometry" />
        </mxCell>
        <mxCell id="Hf-QtDge7o9ZyB0lpC6g-34" value="" style="endArrow=none;html=1;rounded=0;strokeWidth=0.3;fillColor=#ffe6cc;strokeColor=#d79b00;" parent="BTwpPPy1M8Ra8dirvppY-2" edge="1">
          <mxGeometry width="50" height="50" relative="1" as="geometry">
            <mxPoint x="97.5" y="110.19000000000005" as="sourcePoint" />
            <mxPoint x="142.5" y="110" as="targetPoint" />
          </mxGeometry>
        </mxCell>
        <mxCell id="Hf-QtDge7o9ZyB0lpC6g-35" value="" style="endArrow=none;html=1;rounded=0;strokeWidth=0.3;fillColor=#f5f5f5;strokeColor=#666666;" parent="BTwpPPy1M8Ra8dirvppY-2" edge="1">
          <mxGeometry width="50" height="50" relative="1" as="geometry">
            <mxPoint x="177.5" y="110.19000000000005" as="sourcePoint" />
            <mxPoint x="222.5" y="110" as="targetPoint" />
          </mxGeometry>
        </mxCell>
        <mxCell id="Hf-QtDge7o9ZyB0lpC6g-36" value="" style="endArrow=none;html=1;rounded=0;strokeWidth=0.3;fillColor=#fff2cc;strokeColor=#d6b656;" parent="BTwpPPy1M8Ra8dirvppY-2" edge="1">
          <mxGeometry width="50" height="50" relative="1" as="geometry">
            <mxPoint x="257.5" y="110.19000000000005" as="sourcePoint" />
            <mxPoint x="302.5" y="110" as="targetPoint" />
          </mxGeometry>
        </mxCell>
        <mxCell id="Hf-QtDge7o9ZyB0lpC6g-37" value="&lt;b&gt;Object Type:&lt;/b&gt;&amp;nbsp;Table&lt;div&gt;&lt;br&gt;&lt;/div&gt;&lt;div&gt;&lt;b&gt;Load:&lt;/b&gt;&amp;nbsp;&lt;/div&gt;&lt;div&gt;&lt;span style=&quot;background-color: transparent; color: light-dark(rgb(77, 77, 77), rgb(171, 171, 171));&quot;&gt;- Batch Processing&lt;/span&gt;&lt;/div&gt;&lt;div&gt;&lt;span style=&quot;background-color: transparent; color: light-dark(rgb(77, 77, 77), rgb(171, 171, 171));&quot;&gt;- Full Load&amp;nbsp;&lt;/span&gt;&lt;/div&gt;&lt;div&gt;&lt;span style=&quot;background-color: transparent; color: light-dark(rgb(77, 77, 77), rgb(171, 171, 171));&quot;&gt;- Truncate &amp;amp; Insert&lt;/span&gt;&lt;/div&gt;&lt;div&gt;&lt;span style=&quot;background-color: transparent; color: light-dark(rgb(77, 77, 77), rgb(171, 171, 171));&quot;&gt;&lt;br&gt;&lt;/span&gt;&lt;/div&gt;&lt;div&gt;&lt;span style=&quot;background-color: transparent; color: light-dark(rgb(77, 77, 77), rgb(171, 171, 171));&quot;&gt;No&lt;b&gt; Transformations&lt;/b&gt;&lt;/span&gt;&lt;/div&gt;&lt;div&gt;&lt;span style=&quot;background-color: transparent; color: light-dark(rgb(77, 77, 77), rgb(171, 171, 171));&quot;&gt;&lt;br&gt;&lt;/span&gt;&lt;/div&gt;&lt;div&gt;&lt;span style=&quot;background-color: transparent; color: light-dark(rgb(77, 77, 77), rgb(171, 171, 171));&quot;&gt;&lt;b&gt;Data Model&lt;/b&gt;: None (As-is)&lt;/span&gt;&lt;/div&gt;" style="text;html=1;align=left;verticalAlign=middle;whiteSpace=wrap;rounded=0;fontSize=4;fontColor=#4D4D4D;" parent="BTwpPPy1M8Ra8dirvppY-2" vertex="1">
          <mxGeometry x="94.50999999999999" y="129" width="51" height="18" as="geometry" />
        </mxCell>
        <mxCell id="Hf-QtDge7o9ZyB0lpC6g-47" value="&lt;b&gt;Object Type:&lt;/b&gt;&amp;nbsp;Table&lt;div&gt;&lt;br&gt;&lt;/div&gt;&lt;div&gt;&lt;b&gt;Load:&lt;/b&gt;&amp;nbsp;&lt;/div&gt;&lt;div&gt;&lt;span style=&quot;background-color: transparent; color: light-dark(rgb(77, 77, 77), rgb(171, 171, 171));&quot;&gt;- Batch Processing&lt;/span&gt;&lt;/div&gt;&lt;div&gt;&lt;span style=&quot;background-color: transparent; color: light-dark(rgb(77, 77, 77), rgb(171, 171, 171));&quot;&gt;- Full Load&amp;nbsp;&lt;/span&gt;&lt;/div&gt;&lt;div&gt;&lt;span style=&quot;background-color: transparent; color: light-dark(rgb(77, 77, 77), rgb(171, 171, 171));&quot;&gt;- Truncate &amp;amp; Insert&lt;/span&gt;&lt;/div&gt;&lt;div&gt;&lt;span style=&quot;background-color: transparent; color: light-dark(rgb(77, 77, 77), rgb(171, 171, 171));&quot;&gt;&lt;br&gt;&lt;/span&gt;&lt;/div&gt;&lt;div&gt;&lt;span style=&quot;background-color: transparent; color: light-dark(rgb(77, 77, 77), rgb(171, 171, 171));&quot;&gt;&lt;b&gt;Transformations:&amp;nbsp;&lt;/b&gt;&lt;/span&gt;&lt;/div&gt;&lt;div&gt;&lt;span style=&quot;background-color: transparent; color: light-dark(rgb(77, 77, 77), rgb(171, 171, 171));&quot;&gt;- Data Cleansing&lt;/span&gt;&lt;/div&gt;&lt;div&gt;&lt;span style=&quot;background-color: transparent; color: light-dark(rgb(77, 77, 77), rgb(171, 171, 171));&quot;&gt;- Data Standardization&lt;/span&gt;&lt;/div&gt;&lt;div&gt;&lt;span style=&quot;background-color: transparent; color: light-dark(rgb(77, 77, 77), rgb(171, 171, 171));&quot;&gt;- Data Normalization&lt;/span&gt;&lt;/div&gt;&lt;div&gt;- Derived Columns&lt;/div&gt;&lt;div&gt;- Data Enrichment&lt;/div&gt;&lt;div&gt;&lt;span style=&quot;background-color: transparent; color: light-dark(rgb(77, 77, 77), rgb(171, 171, 171));&quot;&gt;&lt;br&gt;&lt;/span&gt;&lt;/div&gt;&lt;div&gt;&lt;span style=&quot;background-color: transparent; color: light-dark(rgb(77, 77, 77), rgb(171, 171, 171));&quot;&gt;&lt;b&gt;Data Model&lt;/b&gt;: None (As-is)&lt;/span&gt;&lt;/div&gt;" style="text;html=1;align=left;verticalAlign=middle;whiteSpace=wrap;rounded=0;fontSize=4;fontColor=#4D4D4D;" parent="BTwpPPy1M8Ra8dirvppY-2" vertex="1">
          <mxGeometry x="175.14999999999998" y="142" width="51" height="18" as="geometry" />
        </mxCell>
        <mxCell id="Hf-QtDge7o9ZyB0lpC6g-48" value="&lt;b&gt;Object Type:&lt;/b&gt;&amp;nbsp;Table&lt;div&gt;&lt;br&gt;&lt;/div&gt;&lt;div&gt;No&lt;b&gt; Load:&lt;/b&gt;&amp;nbsp;&lt;/div&gt;&lt;div&gt;&lt;b style=&quot;background-color: transparent; color: light-dark(rgb(77, 77, 77), rgb(171, 171, 171));&quot;&gt;&lt;br&gt;&lt;/b&gt;&lt;/div&gt;&lt;div&gt;&lt;b style=&quot;background-color: transparent; color: light-dark(rgb(77, 77, 77), rgb(171, 171, 171));&quot;&gt;Transformations:&lt;/b&gt;&lt;/div&gt;&lt;div&gt;&lt;span style=&quot;background-color: transparent; color: light-dark(rgb(77, 77, 77), rgb(171, 171, 171));&quot;&gt;- Data Integrations&lt;/span&gt;&lt;/div&gt;&lt;div&gt;&lt;span style=&quot;background-color: transparent; color: light-dark(rgb(77, 77, 77), rgb(171, 171, 171));&quot;&gt;- Aggregations&lt;/span&gt;&lt;/div&gt;&lt;div&gt;&lt;span style=&quot;background-color: transparent; color: light-dark(rgb(77, 77, 77), rgb(171, 171, 171));&quot;&gt;- Business Logics&lt;/span&gt;&lt;/div&gt;&lt;div&gt;&lt;span style=&quot;background-color: transparent; color: light-dark(rgb(77, 77, 77), rgb(171, 171, 171));&quot;&gt;&lt;br&gt;&lt;/span&gt;&lt;/div&gt;&lt;div&gt;&lt;span style=&quot;background-color: transparent; color: light-dark(rgb(77, 77, 77), rgb(171, 171, 171));&quot;&gt;&lt;b&gt;Data Model&lt;/b&gt;:&amp;nbsp;&lt;/span&gt;&lt;/div&gt;&lt;div&gt;- Star Schema&lt;/div&gt;&lt;div&gt;- Flat Table&lt;/div&gt;&lt;div&gt;- Aggregated Table&lt;/div&gt;" style="text;html=1;align=left;verticalAlign=middle;whiteSpace=wrap;rounded=0;fontSize=4;fontColor=#4D4D4D;" parent="BTwpPPy1M8Ra8dirvppY-2" vertex="1">
          <mxGeometry x="255.14" y="138" width="51" height="18" as="geometry" />
        </mxCell>
        <mxCell id="Hf-QtDge7o9ZyB0lpC6g-49" value="" style="image;aspect=fixed;html=1;points=[];align=center;fontSize=12;image=img/lib/azure2/power_platform/PowerBI.svg;" parent="BTwpPPy1M8Ra8dirvppY-2" vertex="1">
          <mxGeometry x="361.88" y="41" width="17.25" height="23" as="geometry" />
        </mxCell>
        <mxCell id="Hf-QtDge7o9ZyB0lpC6g-54" value="" style="editableCssRules=.*;html=1;shape=image;verticalLabelPosition=bottom;labelBackgroundColor=#ffffff;verticalAlign=top;aspect=fixed;imageAspect=0;image=data:image/svg+xml,PHN2ZyB4bWxucz0iaHR0cDovL3d3dy53My5vcmcvMjAwMC9zdmciIHhtbG5zOnY9Imh0dHBzOi8vdmVjdGEuaW8vbmFubyIgd2lkdGg9IjE5LjkyMTQ0MjAzMTg2MDM1IiBoZWlnaHQ9IjE5Ljc3ODMyMDMxMjUiIHZpZXdCb3g9Ii0wLjAwMDQ0MTU1NzE3NDc4MTMzNzQgMC4yNSAxOS45MjE0NDIwMzE4NjAzNSAxOS43NzgzMjAzMTI1Ij4mI3hhOwk8c3R5bGUgdHlwZT0idGV4dC9jc3MiPiYjeGE7CS5zdDB7ZmlsbDojNDI4NWY0O30mI3hhOwkuc3Qxe2ZpbGw6I2FlY2JmYTt9JiN4YTsJLnN0MntmaWxsLXJ1bGU6ZXZlbm9kZH0mI3hhOwkuc3Qze2ZpbGw6IzY2OWRmNjt9JiN4YTsJPC9zdHlsZT4mI3hhOwk8cGF0aCBjbGFzcz0ic3QwIiBkPSJNNC40NjEgMTYuMjRhMyAzIDAgMSAxIDAtNiAzIDMgMCAxIDEgMCA2em0zLjYzLS40YTQuNDMgNC40MyAwIDAgMC01LjA0OS02LjcxNEE0LjQzIDQuNDMgMCAwIDAgLjAxMSAxMy4zMmE0LjkxIDQuOTEgMCAwIDAgMCAuNjcgMy40MyAzLjQzIDAgMCAwIC4wOS40NGwuMDYuMjFhNC41OSA0LjU5IDAgMCAwIC4zNC43OSA0LjI0IDQuMjQgMCAwIDAgLjc2IDFsLjE1LjE1LjMzLjI3YTQuMTYgNC4xNiAwIDAgMCAuNzMuNDQgNC40NCA0LjQ0IDAgMCAwIDQuNTQtLjI5bDIuOTMgMi45M2EuMzMuMzMgMCAwIDAgLjQ3IDBsLjY2LS42NWEuMzMuMzMgMCAwIDAgMC0uNDd6Ii8+JiN4YTsJPHBhdGggY2xhc3M9InN0MSIgZD0iTTkuODExIDE0LjU4YTUuNDEgNS40MSAwIDAgMCAuMi0xLjUxIDUuNTMgNS41MyAwIDAgMC01LjYxLTUuNDIgNS44MiA1LjgyIDAgMCAwLTEuOTIuMzVWMy44M2EuNjIuNjIgMCAwIDEgLjYyLS42MmgxNi4xOWEuNjMuNjMgMCAwIDEgLjYzLjYyVjE0YS42My42MyAwIDAgMS0uNjMuNjN6Ii8+JiN4YTsJPGcgY2xhc3M9InN0MiI+JiN4YTsJCTxwYXRoIGNsYXNzPSJzdDMiIGQ9Ik0xMy41OTEgMy4yMVYxLjczaC00LjQ0djEuNDhoLTEuNDlWLjg3YS42My42MyAwIDAgMSAuNjMtLjYyaDYuMTZhLjYyLjYyIDAgMCAxIC42Mi42MnYyLjM0eiIvPiYjeGE7CQk8cGF0aCBjbGFzcz0ic3QwIiBkPSJNMTUuMDcxIDMuMjFoLTEuNDhsMS40OC0uNDd6bS01LjkzIDBoLTEuNDlsMS40OS0uNTR6Ii8+JiN4YTsJPC9nPiYjeGE7PC9zdmc+;" parent="BTwpPPy1M8Ra8dirvppY-2" vertex="1">
          <mxGeometry x="358.01" y="90.12" width="25" height="25" as="geometry" />
        </mxCell>
        <mxCell id="Hf-QtDge7o9ZyB0lpC6g-56" value="" style="sketch=0;points=[[0,0,0],[0.25,0,0],[0.5,0,0],[0.75,0,0],[1,0,0],[0,1,0],[0.25,1,0],[0.5,1,0],[0.75,1,0],[1,1,0],[0,0.25,0],[0,0.5,0],[0,0.75,0],[1,0.25,0],[1,0.5,0],[1,0.75,0]];outlineConnect=0;fontColor=#232F3E;fillColor=#01A88D;strokeColor=#ffffff;dashed=0;verticalLabelPosition=bottom;verticalAlign=top;align=center;html=1;fontSize=12;fontStyle=0;aspect=fixed;shape=mxgraph.aws4.resourceIcon;resIcon=mxgraph.aws4.machine_learning;" parent="BTwpPPy1M8Ra8dirvppY-2" vertex="1">
          <mxGeometry x="361.88" y="138" width="22" height="22" as="geometry" />
        </mxCell>
        <mxCell id="Hf-QtDge7o9ZyB0lpC6g-57" value="BI &amp;amp; Reporing" style="text;html=1;align=center;verticalAlign=middle;whiteSpace=wrap;rounded=0;fontSize=5;" parent="BTwpPPy1M8Ra8dirvppY-2" vertex="1">
          <mxGeometry x="355.39" y="60" width="34.99" height="15" as="geometry" />
        </mxCell>
        <mxCell id="Hf-QtDge7o9ZyB0lpC6g-58" value="Ad-Hoc &lt;br&gt;SQL Queries" style="text;html=1;align=center;verticalAlign=middle;whiteSpace=wrap;rounded=0;fontSize=5;" parent="BTwpPPy1M8Ra8dirvppY-2" vertex="1">
          <mxGeometry x="355.39" y="112" width="34.99" height="15" as="geometry" />
        </mxCell>
        <mxCell id="Hf-QtDge7o9ZyB0lpC6g-59" value="Machine Learning" style="text;html=1;align=center;verticalAlign=middle;whiteSpace=wrap;rounded=0;fontSize=5;" parent="BTwpPPy1M8Ra8dirvppY-2" vertex="1">
          <mxGeometry x="355.39" y="145" width="34.99" height="41" as="geometry" />
        </mxCell>
      </root>
    </mxGraphModel>
  </diagram>
</mxfile>
